<?xml version="1.0" encoding="UTF-8" standalone="no"?>
<svg
   width="3474.8564"
   height="728.25494"
   viewBox="0 0 2223.9081 466.08316"
   version="1.1"
   id="svg1"
   sodipodi:docname="greenhouse-logo-2.svg"
   inkscape:export-filename="greenhouse-logo-text.svg"
   inkscape:export-xdpi="105.45757"
   inkscape:export-ydpi="105.45757"
   xmlns:inkscape="http://www.inkscape.org/namespaces/inkscape"
   xmlns:sodipodi="http://sodipodi.sourceforge.net/DTD/sodipodi-0.dtd"
   xmlns="http://www.w3.org/2000/svg"
   xmlns:svg="http://www.w3.org/2000/svg">
  <defs
     id="defs1" />
  <sodipodi:namedview
     id="namedview1"
     pagecolor="#505050"
     bordercolor="#ffffff"
     borderopacity="1"
     inkscape:showpageshadow="0"
     inkscape:pageopacity="0"
     inkscape:pagecheckerboard="1"
     inkscape:deskcolor="#505050"
     showgrid="false" />
  <path
     fill="currentColor"
     d="M 150.015,0.01915849 0,165.62916 v 300.454 h 466 v -300.156 L 333.326,0.08315849 c -61.101,-0.336 -122.211,0.492 -183.31,-0.064 z M 173.207,18.083158 h 71.467 L 358.275,160.08316 h -57.267 z m 94.52,0 h 56.947 L 438.275,160.08316 h -56.95 z M 153,22.538158 288,172.53616 v 275.547 H 18 v -275.547 z m 46.676,104.662002 c -28.028,1.213 -50.09,13.314 -66.613,29.309 -19.1,18.49 -30.514,42.355 -33.84,59.283 -7.239,36.843 9.808,61.862 31.07,70.447 0.02,-0.202 0.049,-0.176 0.002,-0.24 -7.507,-38.847 4.114,-75.91 28.72,-100.455 -18.585,28.567 -20.994,70.834 -9.7,103.953 a 38.802,38.802 0 0 0 13.834,-3.451 c 10.316,-4.728 19.615,-14.342 25.414,-30.531 6.178,-17.248 0.883,-45.042 -1.242,-71.45 -1.062,-13.203 -1.264,-26.148 1.892,-37.703 1.944,-7.113 5.327,-13.7 10.463,-19.162 z M 306,178.08316 h 62 v 110 h -62 z m 80,0 h 62 v 110 h -62 z m -330.826,42.512 c -15.848,17.804 -21.765,38.434 -22.088,58.12 -0.38,23.193 7.323,44.995 15.678,57.44 18.033,26.86 43.723,31.7 61.941,24.3 -28.494,-19.45 -44.12,-49.495 -44.082,-79.847 6.147,29.067 30.586,56.61 57.916,70.24 a 33.509,33.509 0 0 0 6.424,-10.67 c 3.408,-9.175 3.24,-20.71 -3.149,-34.238 -6.745,-14.28 -27.202,-28.267 -44.939,-43.365 -8.869,-7.55 -17.058,-15.495 -22.326,-24.726 -3.013,-5.281 -4.947,-11.098 -5.375,-17.254 z m 216.205,37.386 c -3.45,5.122 -8.026,9.207 -13.28,12.276 -9.176,5.36 -20.237,8.138 -31.69,10.24 -22.91,4.206 -47.61,6.085 -60.589,15.076 -12.295,8.52 -18.226,18.434 -19.861,28.084 a 33.488,33.488 0 0 0 0.238,12.45 c 30.484,1.864 65.412,-9.769 85.268,-31.868 -15.136,26.304 -43.686,44.509 -78.08,47.104 12.078,15.52 36.73,24.18 65.771,9.937 13.456,-6.598 31.037,-21.629 42.301,-41.902 9.562,-17.212 14.747,-38.051 9.922,-61.397 z m 34.621,48.102 h 62 v 142 h -62 z m 80,0 h 62 v 142 h -62 z m -257.033,58.621 c -3.298,23.051 5.13,45.02 5.135,61.172 l 18,-0.006 c -0.006,-21.306 -7.68,-42.102 -5.317,-58.615 -4.348,-6.181 -9.231,-7.098 -17.818,-2.55 z"
     id="path1" />
  <text
     xml:space="preserve"
     style="font-style:normal;font-variant:normal;font-weight:normal;font-stretch:normal;font-size:298.667px;font-family:'Noto Sans';-inkscape-font-specification:'Noto Sans';letter-spacing:-7.68px;fill:#000000;stroke:#000000;stroke-width:0.64"
     x="498.3606"
     y="322.91956"
     id="text2"><tspan
       sodipodi:role="line"
       id="tspan2"
       style="font-style:normal;font-variant:normal;font-weight:200;font-stretch:normal;font-size:298.667px;font-family:'Noto Sans';-inkscape-font-specification:'Noto Sans Ultra-Light';stroke-width:0.64"
       x="498.3606"
       y="322.91956">Veksthus Vakt</tspan></text>
</svg>
